<svg xmlns="http://www.w3.org/2000/svg" width="991" height="208" viewBox="0 0 991 208">
  <g id="Co-funded_01" transform="translate(-102 -362)">
    <rect id="EN-Funded_by_the_EU-POS" data-name="EN-Funded by the EU-POS" width="991" height="208" transform="translate(102 362)" fill="none"/>
    <g id="Flag_of_Europe" transform="translate(114 374)">
      <rect id="Прямоугольник_248" data-name="Прямоугольник 248" width="276" height="184" fill="#039"/>
      <g id="Сгруппировать_613" data-name="Сгруппировать 613" transform="translate(65.084 20.488)">
        <g id="Сгруппировать_545" data-name="Сгруппировать 545" transform="translate(61.464)">
          <g id="c" transform="translate(6.377)">
            <path id="t" d="M0,0V10.244H5.122Z" transform="translate(4.871 0) rotate(18)" fill="#fc0"/>
            <path id="Контур_941" data-name="Контур 941" d="M0,10.244V0H5.122Z" transform="translate(8.037 9.743) rotate(162)" fill="#fc0"/>
          </g>
          <g id="a" transform="translate(6.671 2.445)">
            <g id="Сгруппировать_540" data-name="Сгруппировать 540" transform="translate(12.814 0) rotate(72)">
              <path id="t-2" data-name="t" d="M0,0V10.244H5.122Z" transform="translate(4.871 0) rotate(18)" fill="#fc0"/>
              <path id="Контур_942" data-name="Контур 942" d="M0,10.244V0H5.122Z" transform="translate(8.037 9.743) rotate(162)" fill="#fc0"/>
            </g>
            <g id="Сгруппировать_541" data-name="Сгруппировать 541" transform="matrix(-0.809, 0.588, -0.588, -0.809, 14.539, 13.223)">
              <path id="t-3" data-name="t" d="M0,0V10.244H5.122Z" transform="translate(4.871 0) rotate(18)" fill="#fc0"/>
              <path id="Контур_943" data-name="Контур 943" d="M0,10.244V0H5.122Z" transform="translate(8.037 9.743) rotate(162)" fill="#fc0"/>
            </g>
          </g>
          <g id="Сгруппировать_544" data-name="Сгруппировать 544" transform="translate(15.825 21.395) rotate(180)">
            <g id="Сгруппировать_542" data-name="Сгруппировать 542" transform="translate(2.043 15.45) rotate(-72)">
              <path id="t-4" data-name="t" d="M0,10.244V0H5.122Z" transform="translate(1.706 1.583) rotate(-18)" fill="#fc0"/>
              <path id="Контур_944" data-name="Контур 944" d="M0,0V10.244H5.122Z" transform="translate(4.871 11.326) rotate(-162)" fill="#fc0"/>
            </g>
            <g id="Сгруппировать_543" data-name="Сгруппировать 543" transform="matrix(-0.809, -0.588, 0.588, -0.809, 7.882, 14.889)">
              <path id="t-5" data-name="t" d="M0,10.244V0H5.122Z" transform="translate(1.706 1.583) rotate(-18)" fill="#fc0"/>
              <path id="Контур_945" data-name="Контур 945" d="M0,0V10.244H5.122Z" transform="translate(4.871 11.326) rotate(-162)" fill="#fc0"/>
            </g>
          </g>
        </g>
        <g id="Сгруппировать_551" data-name="Сгруппировать 551" transform="translate(61.464 122.928)">
          <g id="c-2" data-name="c" transform="translate(6.377 0)">
            <path id="t-6" data-name="t" d="M0,0V10.244H5.122Z" transform="translate(4.871 0) rotate(18)" fill="#fc0"/>
            <path id="Контур_946" data-name="Контур 946" d="M0,10.244V0H5.122Z" transform="translate(8.037 9.743) rotate(162)" fill="#fc0"/>
          </g>
          <g id="a-2" data-name="a" transform="translate(6.671 2.445)">
            <g id="Сгруппировать_546" data-name="Сгруппировать 546" transform="translate(12.814 0) rotate(72)">
              <path id="t-7" data-name="t" d="M0,0V10.244H5.122Z" transform="translate(4.871 0) rotate(18)" fill="#fc0"/>
              <path id="Контур_947" data-name="Контур 947" d="M0,10.244V0H5.122Z" transform="translate(8.037 9.743) rotate(162)" fill="#fc0"/>
            </g>
            <g id="Сгруппировать_547" data-name="Сгруппировать 547" transform="matrix(-0.809, 0.588, -0.588, -0.809, 14.539, 13.223)">
              <path id="t-8" data-name="t" d="M0,0V10.244H5.122Z" transform="translate(4.871 0) rotate(18)" fill="#fc0"/>
              <path id="Контур_948" data-name="Контур 948" d="M0,10.244V0H5.122Z" transform="translate(8.037 9.743) rotate(162)" fill="#fc0"/>
            </g>
          </g>
          <g id="Сгруппировать_550" data-name="Сгруппировать 550" transform="translate(15.825 21.395) rotate(180)">
            <g id="Сгруппировать_548" data-name="Сгруппировать 548" transform="translate(2.043 15.45) rotate(-72)">
              <path id="t-9" data-name="t" d="M0,10.244V0H5.122Z" transform="translate(1.706 1.583) rotate(-18)" fill="#fc0"/>
              <path id="Контур_949" data-name="Контур 949" d="M0,0V10.244H5.122Z" transform="translate(4.871 11.326) rotate(-162)" fill="#fc0"/>
            </g>
            <g id="Сгруппировать_549" data-name="Сгруппировать 549" transform="matrix(-0.809, -0.588, 0.588, -0.809, 7.882, 14.889)">
              <path id="t-10" data-name="t" d="M0,10.244V0H5.122Z" transform="translate(1.706 1.583) rotate(-18)" fill="#fc0"/>
              <path id="Контур_950" data-name="Контур 950" d="M0,0V10.244H5.122Z" transform="translate(4.871 11.326) rotate(-162)" fill="#fc0"/>
            </g>
          </g>
        </g>
        <g id="l" transform="translate(0 2.846)">
          <g id="Сгруппировать_557" data-name="Сгруппировать 557" transform="translate(0 58.618)">
            <g id="c-3" data-name="c" transform="translate(6.377)">
              <path id="t-11" data-name="t" d="M0,0V10.244H5.122Z" transform="translate(4.871 0) rotate(18)" fill="#fc0"/>
              <path id="Контур_951" data-name="Контур 951" d="M0,10.244V0H5.122Z" transform="translate(8.037 9.743) rotate(162)" fill="#fc0"/>
            </g>
            <g id="a-3" data-name="a" transform="translate(6.671 2.445)">
              <g id="Сгруппировать_552" data-name="Сгруппировать 552" transform="translate(12.814 0) rotate(72)">
                <path id="t-12" data-name="t" d="M0,0V10.244H5.122Z" transform="translate(4.871 0) rotate(18)" fill="#fc0"/>
                <path id="Контур_952" data-name="Контур 952" d="M0,10.244V0H5.122Z" transform="translate(8.037 9.743) rotate(162)" fill="#fc0"/>
              </g>
              <g id="Сгруппировать_553" data-name="Сгруппировать 553" transform="matrix(-0.809, 0.588, -0.588, -0.809, 14.539, 13.223)">
                <path id="t-13" data-name="t" d="M0,0V10.244H5.122Z" transform="translate(4.871 0) rotate(18)" fill="#fc0"/>
                <path id="Контур_953" data-name="Контур 953" d="M0,10.244V0H5.122Z" transform="translate(8.037 9.743) rotate(162)" fill="#fc0"/>
              </g>
            </g>
            <g id="Сгруппировать_556" data-name="Сгруппировать 556" transform="translate(15.825 21.395) rotate(180)">
              <g id="Сгруппировать_554" data-name="Сгруппировать 554" transform="translate(2.043 15.45) rotate(-72)">
                <path id="t-14" data-name="t" d="M0,10.244V0H5.122Z" transform="translate(1.706 1.583) rotate(-18)" fill="#fc0"/>
                <path id="Контур_954" data-name="Контур 954" d="M0,0V10.244H5.122Z" transform="translate(4.871 11.326) rotate(-162)" fill="#fc0"/>
              </g>
              <g id="Сгруппировать_555" data-name="Сгруппировать 555" transform="matrix(-0.809, -0.588, 0.588, -0.809, 7.882, 14.889)">
                <path id="t-15" data-name="t" d="M0,10.244V0H5.122Z" transform="translate(1.706 1.583) rotate(-18)" fill="#fc0"/>
                <path id="Контур_955" data-name="Контур 955" d="M0,0V10.244H5.122Z" transform="translate(4.871 11.326) rotate(-162)" fill="#fc0"/>
              </g>
            </g>
          </g>
          <g id="Сгруппировать_563" data-name="Сгруппировать 563" transform="matrix(-0.809, -0.588, 0.588, -0.809, 45.059, 30.532)">
            <g id="c-4" data-name="c" transform="translate(6.377 0)">
              <path id="t-16" data-name="t" d="M0,0V10.244H5.122Z" transform="translate(4.871 0) rotate(18)" fill="#fc0"/>
              <path id="Контур_956" data-name="Контур 956" d="M0,10.244V0H5.122Z" transform="translate(8.037 9.743) rotate(162)" fill="#fc0"/>
            </g>
            <g id="a-4" data-name="a" transform="translate(6.671 2.445)">
              <g id="Сгруппировать_558" data-name="Сгруппировать 558" transform="translate(12.814 0) rotate(72)">
                <path id="t-17" data-name="t" d="M0,0V10.244H5.122Z" transform="translate(4.871 0) rotate(18)" fill="#fc0"/>
                <path id="Контур_957" data-name="Контур 957" d="M0,10.244V0H5.122Z" transform="translate(8.037 9.743) rotate(162)" fill="#fc0"/>
              </g>
              <g id="Сгруппировать_559" data-name="Сгруппировать 559" transform="matrix(-0.809, 0.588, -0.588, -0.809, 14.539, 13.223)">
                <path id="t-18" data-name="t" d="M0,0V10.244H5.122Z" transform="translate(4.871 0) rotate(18)" fill="#fc0"/>
                <path id="Контур_958" data-name="Контур 958" d="M0,10.244V0H5.122Z" transform="translate(8.037 9.743) rotate(162)" fill="#fc0"/>
              </g>
            </g>
            <g id="Сгруппировать_562" data-name="Сгруппировать 562" transform="translate(15.825 21.395) rotate(180)">
              <g id="Сгруппировать_560" data-name="Сгруппировать 560" transform="translate(2.043 15.45) rotate(-72)">
                <path id="t-19" data-name="t" d="M0,10.244V0H5.122Z" transform="translate(1.706 1.583) rotate(-18)" fill="#fc0"/>
                <path id="Контур_959" data-name="Контур 959" d="M0,0V10.244H5.122Z" transform="translate(4.871 11.326) rotate(-162)" fill="#fc0"/>
              </g>
              <g id="Сгруппировать_561" data-name="Сгруппировать 561" transform="matrix(-0.809, -0.588, 0.588, -0.809, 7.882, 14.889)">
                <path id="t-20" data-name="t" d="M0,10.244V0H5.122Z" transform="translate(1.706 1.583) rotate(-18)" fill="#fc0"/>
                <path id="Контур_960" data-name="Контур 960" d="M0,0V10.244H5.122Z" transform="translate(4.871 11.326) rotate(-162)" fill="#fc0"/>
              </g>
            </g>
          </g>
          <g id="Сгруппировать_569" data-name="Сгруппировать 569" transform="matrix(-0.809, 0.588, -0.588, -0.809, 34.604, 39.806)">
            <g id="c-5" data-name="c" transform="translate(6.377 0)">
              <path id="t-21" data-name="t" d="M0,0V10.244H5.122Z" transform="translate(4.871 0) rotate(18)" fill="#fc0"/>
              <path id="Контур_961" data-name="Контур 961" d="M0,10.244V0H5.122Z" transform="translate(8.037 9.743) rotate(162)" fill="#fc0"/>
            </g>
            <g id="a-5" data-name="a" transform="translate(6.671 2.445)">
              <g id="Сгруппировать_564" data-name="Сгруппировать 564" transform="translate(12.814 0) rotate(72)">
                <path id="t-22" data-name="t" d="M0,0V10.244H5.122Z" transform="translate(4.871 0) rotate(18)" fill="#fc0"/>
                <path id="Контур_962" data-name="Контур 962" d="M0,10.244V0H5.122Z" transform="translate(8.037 9.743) rotate(162)" fill="#fc0"/>
              </g>
              <g id="Сгруппировать_565" data-name="Сгруппировать 565" transform="matrix(-0.809, 0.588, -0.588, -0.809, 14.539, 13.223)">
                <path id="t-23" data-name="t" d="M0,0V10.244H5.122Z" transform="translate(4.871 0) rotate(18)" fill="#fc0"/>
                <path id="Контур_963" data-name="Контур 963" d="M0,10.244V0H5.122Z" transform="translate(8.037 9.743) rotate(162)" fill="#fc0"/>
              </g>
            </g>
            <g id="Сгруппировать_568" data-name="Сгруппировать 568" transform="translate(15.825 21.395) rotate(180)">
              <g id="Сгруппировать_566" data-name="Сгруппировать 566" transform="translate(2.043 15.45) rotate(-72)">
                <path id="t-24" data-name="t" d="M0,10.244V0H5.122Z" transform="translate(1.706 1.583) rotate(-18)" fill="#fc0"/>
                <path id="Контур_964" data-name="Контур 964" d="M0,0V10.244H5.122Z" transform="translate(4.871 11.326) rotate(-162)" fill="#fc0"/>
              </g>
              <g id="Сгруппировать_567" data-name="Сгруппировать 567" transform="matrix(-0.809, -0.588, 0.588, -0.809, 7.882, 14.889)">
                <path id="t-25" data-name="t" d="M0,10.244V0H5.122Z" transform="translate(1.706 1.583) rotate(-18)" fill="#fc0"/>
                <path id="Контур_965" data-name="Контур 965" d="M0,0V10.244H5.122Z" transform="translate(4.871 11.326) rotate(-162)" fill="#fc0"/>
              </g>
            </g>
          </g>
          <g id="Сгруппировать_575" data-name="Сгруппировать 575" transform="translate(25.75 85.731) rotate(72)">
            <g id="c-6" data-name="c" transform="translate(6.377 0)">
              <path id="t-26" data-name="t" d="M0,0V10.244H5.122Z" transform="translate(4.871 0) rotate(18)" fill="#fc0"/>
              <path id="Контур_966" data-name="Контур 966" d="M0,10.244V0H5.122Z" transform="translate(8.037 9.743) rotate(162)" fill="#fc0"/>
            </g>
            <g id="a-6" data-name="a" transform="translate(6.671 2.445)">
              <g id="Сгруппировать_570" data-name="Сгруппировать 570" transform="translate(12.814 0) rotate(72)">
                <path id="t-27" data-name="t" d="M0,0V10.244H5.122Z" transform="translate(4.871 0) rotate(18)" fill="#fc0"/>
                <path id="Контур_967" data-name="Контур 967" d="M0,10.244V0H5.122Z" transform="translate(8.037 9.743) rotate(162)" fill="#fc0"/>
              </g>
              <g id="Сгруппировать_571" data-name="Сгруппировать 571" transform="matrix(-0.809, 0.588, -0.588, -0.809, 14.539, 13.223)">
                <path id="t-28" data-name="t" d="M0,0V10.244H5.122Z" transform="translate(4.871 0) rotate(18)" fill="#fc0"/>
                <path id="Контур_968" data-name="Контур 968" d="M0,10.244V0H5.122Z" transform="translate(8.037 9.743) rotate(162)" fill="#fc0"/>
              </g>
            </g>
            <g id="Сгруппировать_574" data-name="Сгруппировать 574" transform="translate(15.825 21.395) rotate(180)">
              <g id="Сгруппировать_572" data-name="Сгруппировать 572" transform="translate(2.043 15.45) rotate(-72)">
                <path id="t-29" data-name="t" d="M0,10.244V0H5.122Z" transform="translate(1.706 1.583) rotate(-18)" fill="#fc0"/>
                <path id="Контур_969" data-name="Контур 969" d="M0,0V10.244H5.122Z" transform="translate(4.871 11.326) rotate(-162)" fill="#fc0"/>
              </g>
              <g id="Сгруппировать_573" data-name="Сгруппировать 573" transform="matrix(-0.809, -0.588, 0.588, -0.809, 7.882, 14.889)">
                <path id="t-30" data-name="t" d="M0,10.244V0H5.122Z" transform="translate(1.706 1.583) rotate(-18)" fill="#fc0"/>
                <path id="Контур_970" data-name="Контур 970" d="M0,0V10.244H5.122Z" transform="translate(4.871 11.326) rotate(-162)" fill="#fc0"/>
              </g>
            </g>
          </g>
          <g id="Сгруппировать_581" data-name="Сгруппировать 581" transform="translate(48.247 108.229) rotate(72)">
            <g id="c-7" data-name="c" transform="translate(6.377 0)">
              <path id="t-31" data-name="t" d="M0,0V10.244H5.122Z" transform="translate(4.871 0) rotate(18)" fill="#fc0"/>
              <path id="Контур_971" data-name="Контур 971" d="M0,10.244V0H5.122Z" transform="translate(8.037 9.743) rotate(162)" fill="#fc0"/>
            </g>
            <g id="a-7" data-name="a" transform="translate(6.671 2.445)">
              <g id="Сгруппировать_576" data-name="Сгруппировать 576" transform="translate(12.814 0) rotate(72)">
                <path id="t-32" data-name="t" d="M0,0V10.244H5.122Z" transform="translate(4.871 0) rotate(18)" fill="#fc0"/>
                <path id="Контур_972" data-name="Контур 972" d="M0,10.244V0H5.122Z" transform="translate(8.037 9.743) rotate(162)" fill="#fc0"/>
              </g>
              <g id="Сгруппировать_577" data-name="Сгруппировать 577" transform="matrix(-0.809, 0.588, -0.588, -0.809, 14.539, 13.223)">
                <path id="t-33" data-name="t" d="M0,0V10.244H5.122Z" transform="translate(4.871 0) rotate(18)" fill="#fc0"/>
                <path id="Контур_973" data-name="Контур 973" d="M0,10.244V0H5.122Z" transform="translate(8.037 9.743) rotate(162)" fill="#fc0"/>
              </g>
            </g>
            <g id="Сгруппировать_580" data-name="Сгруппировать 580" transform="translate(15.825 21.395) rotate(180)">
              <g id="Сгруппировать_578" data-name="Сгруппировать 578" transform="translate(2.043 15.45) rotate(-72)">
                <path id="t-34" data-name="t" d="M0,10.244V0H5.122Z" transform="translate(1.706 1.583) rotate(-18)" fill="#fc0"/>
                <path id="Контур_974" data-name="Контур 974" d="M0,0V10.244H5.122Z" transform="translate(4.871 11.326) rotate(-162)" fill="#fc0"/>
              </g>
              <g id="Сгруппировать_579" data-name="Сгруппировать 579" transform="matrix(-0.809, -0.588, 0.588, -0.809, 7.882, 14.889)">
                <path id="t-35" data-name="t" d="M0,10.244V0H5.122Z" transform="translate(1.706 1.583) rotate(-18)" fill="#fc0"/>
                <path id="Контур_975" data-name="Контур 975" d="M0,0V10.244H5.122Z" transform="translate(4.871 11.326) rotate(-162)" fill="#fc0"/>
              </g>
            </g>
          </g>
        </g>
        <g id="Сгруппировать_612" data-name="Сгруппировать 612" transform="translate(145.425 139.081) rotate(180)">
          <g id="Сгруппировать_587" data-name="Сгруппировать 587" transform="translate(0 56.222)">
            <g id="c-8" data-name="c" transform="translate(6.377 10.069)">
              <path id="t-36" data-name="t" d="M0,10.244V0H5.122Z" transform="translate(1.706 1.583) rotate(-18)" fill="#fc0"/>
              <path id="Контур_976" data-name="Контур 976" d="M0,0V10.244H5.122Z" transform="translate(4.871 11.326) rotate(-162)" fill="#fc0"/>
            </g>
            <g id="a-8" data-name="a" transform="translate(6.671)">
              <g id="Сгруппировать_582" data-name="Сгруппировать 582" transform="translate(2.043 15.45) rotate(-72)">
                <path id="t-37" data-name="t" d="M0,10.244V0H5.122Z" transform="translate(1.706 1.583) rotate(-18)" fill="#fc0"/>
                <path id="Контур_977" data-name="Контур 977" d="M0,0V10.244H5.122Z" transform="translate(4.871 11.326) rotate(-162)" fill="#fc0"/>
              </g>
              <g id="Сгруппировать_583" data-name="Сгруппировать 583" transform="matrix(-0.809, -0.588, 0.588, -0.809, 7.882, 14.889)">
                <path id="t-38" data-name="t" d="M0,10.244V0H5.122Z" transform="translate(1.706 1.583) rotate(-18)" fill="#fc0"/>
                <path id="Контур_978" data-name="Контур 978" d="M0,0V10.244H5.122Z" transform="translate(4.871 11.326) rotate(-162)" fill="#fc0"/>
              </g>
            </g>
            <g id="Сгруппировать_586" data-name="Сгруппировать 586" transform="translate(15.825 18.95) rotate(180)">
              <g id="Сгруппировать_584" data-name="Сгруппировать 584" transform="translate(12.814 0) rotate(72)">
                <path id="t-39" data-name="t" d="M0,0V10.244H5.122Z" transform="translate(4.871 0) rotate(18)" fill="#fc0"/>
                <path id="Контур_979" data-name="Контур 979" d="M0,10.244V0H5.122Z" transform="translate(8.037 9.743) rotate(162)" fill="#fc0"/>
              </g>
              <g id="Сгруппировать_585" data-name="Сгруппировать 585" transform="matrix(-0.809, 0.588, -0.588, -0.809, 14.539, 13.223)">
                <path id="t-40" data-name="t" d="M0,0V10.244H5.122Z" transform="translate(4.871 0) rotate(18)" fill="#fc0"/>
                <path id="Контур_980" data-name="Контур 980" d="M0,10.244V0H5.122Z" transform="translate(8.037 9.743) rotate(162)" fill="#fc0"/>
              </g>
            </g>
          </g>
          <g id="Сгруппировать_593" data-name="Сгруппировать 593" transform="matrix(-0.809, 0.588, -0.588, -0.809, 57.634, 123.012)">
            <g id="c-9" data-name="c" transform="translate(6.377 10.07)">
              <path id="t-41" data-name="t" d="M0,10.244V0H5.122Z" transform="translate(1.706 1.583) rotate(-18)" fill="#fc0"/>
              <path id="Контур_981" data-name="Контур 981" d="M0,0V10.244H5.122Z" transform="translate(4.871 11.326) rotate(-162)" fill="#fc0"/>
            </g>
            <g id="a-9" data-name="a" transform="translate(6.671 0)">
              <g id="Сгруппировать_588" data-name="Сгруппировать 588" transform="translate(2.043 15.45) rotate(-72)">
                <path id="t-42" data-name="t" d="M0,10.244V0H5.122Z" transform="translate(1.706 1.583) rotate(-18)" fill="#fc0"/>
                <path id="Контур_982" data-name="Контур 982" d="M0,0V10.244H5.122Z" transform="translate(4.871 11.326) rotate(-162)" fill="#fc0"/>
              </g>
              <g id="Сгруппировать_589" data-name="Сгруппировать 589" transform="matrix(-0.809, -0.588, 0.588, -0.809, 7.882, 14.889)">
                <path id="t-43" data-name="t" d="M0,10.244V0H5.122Z" transform="translate(1.706 1.583) rotate(-18)" fill="#fc0"/>
                <path id="Контур_983" data-name="Контур 983" d="M0,0V10.244H5.122Z" transform="translate(4.871 11.326) rotate(-162)" fill="#fc0"/>
              </g>
            </g>
            <g id="Сгруппировать_592" data-name="Сгруппировать 592" transform="translate(15.825 18.95) rotate(180)">
              <g id="Сгруппировать_590" data-name="Сгруппировать 590" transform="translate(12.814 0) rotate(72)">
                <path id="t-44" data-name="t" d="M0,0V10.244H5.122Z" transform="translate(4.871 0) rotate(18)" fill="#fc0"/>
                <path id="Контур_984" data-name="Контур 984" d="M0,10.244V0H5.122Z" transform="translate(8.037 9.743) rotate(162)" fill="#fc0"/>
              </g>
              <g id="Сгруппировать_591" data-name="Сгруппировать 591" transform="matrix(-0.809, 0.588, -0.588, -0.809, 14.539, 13.223)">
                <path id="t-45" data-name="t" d="M0,0V10.244H5.122Z" transform="translate(4.871 0) rotate(18)" fill="#fc0"/>
                <path id="Контур_985" data-name="Контур 985" d="M0,10.244V0H5.122Z" transform="translate(8.037 9.743) rotate(162)" fill="#fc0"/>
              </g>
            </g>
          </g>
          <g id="Сгруппировать_599" data-name="Сгруппировать 599" transform="matrix(-0.809, -0.588, 0.588, -0.809, 22.028, 113.738)">
            <g id="c-10" data-name="c" transform="translate(6.377 10.07)">
              <path id="t-46" data-name="t" d="M0,10.244V0H5.122Z" transform="translate(1.706 1.583) rotate(-18)" fill="#fc0"/>
              <path id="Контур_986" data-name="Контур 986" d="M0,0V10.244H5.122Z" transform="translate(4.871 11.326) rotate(-162)" fill="#fc0"/>
            </g>
            <g id="a-10" data-name="a" transform="translate(6.671 0)">
              <g id="Сгруппировать_594" data-name="Сгруппировать 594" transform="translate(2.043 15.45) rotate(-72)">
                <path id="t-47" data-name="t" d="M0,10.244V0H5.122Z" transform="translate(1.706 1.583) rotate(-18)" fill="#fc0"/>
                <path id="Контур_987" data-name="Контур 987" d="M0,0V10.244H5.122Z" transform="translate(4.871 11.326) rotate(-162)" fill="#fc0"/>
              </g>
              <g id="Сгруппировать_595" data-name="Сгруппировать 595" transform="matrix(-0.809, -0.588, 0.588, -0.809, 7.882, 14.889)">
                <path id="t-48" data-name="t" d="M0,10.244V0H5.122Z" transform="translate(1.706 1.583) rotate(-18)" fill="#fc0"/>
                <path id="Контур_988" data-name="Контур 988" d="M0,0V10.244H5.122Z" transform="translate(4.871 11.326) rotate(-162)" fill="#fc0"/>
              </g>
            </g>
            <g id="Сгруппировать_598" data-name="Сгруппировать 598" transform="translate(15.825 18.95) rotate(180)">
              <g id="Сгруппировать_596" data-name="Сгруппировать 596" transform="translate(12.814 0) rotate(72)">
                <path id="t-49" data-name="t" d="M0,0V10.244H5.122Z" transform="translate(4.871 0) rotate(18)" fill="#fc0"/>
                <path id="Контур_989" data-name="Контур 989" d="M0,10.244V0H5.122Z" transform="translate(8.037 9.743) rotate(162)" fill="#fc0"/>
              </g>
              <g id="Сгруппировать_597" data-name="Сгруппировать 597" transform="matrix(-0.809, 0.588, -0.588, -0.809, 14.539, 13.223)">
                <path id="t-50" data-name="t" d="M0,0V10.244H5.122Z" transform="translate(4.871 0) rotate(18)" fill="#fc0"/>
                <path id="Контур_990" data-name="Контур 990" d="M0,10.244V0H5.122Z" transform="translate(8.037 9.743) rotate(162)" fill="#fc0"/>
              </g>
            </g>
          </g>
          <g id="Сгруппировать_605" data-name="Сгруппировать 605" transform="translate(5.402 43.893) rotate(-72)">
            <g id="c-11" data-name="c" transform="translate(6.377 10.07)">
              <path id="t-51" data-name="t" d="M0,10.244V0H5.122Z" transform="translate(1.706 1.583) rotate(-18)" fill="#fc0"/>
              <path id="Контур_991" data-name="Контур 991" d="M0,0V10.244H5.122Z" transform="translate(4.871 11.326) rotate(-162)" fill="#fc0"/>
            </g>
            <g id="a-11" data-name="a" transform="translate(6.671 0)">
              <g id="Сгруппировать_600" data-name="Сгруппировать 600" transform="translate(2.043 15.45) rotate(-72)">
                <path id="t-52" data-name="t" d="M0,10.244V0H5.122Z" transform="translate(1.706 1.583) rotate(-18)" fill="#fc0"/>
                <path id="Контур_992" data-name="Контур 992" d="M0,0V10.244H5.122Z" transform="translate(4.871 11.326) rotate(-162)" fill="#fc0"/>
              </g>
              <g id="Сгруппировать_601" data-name="Сгруппировать 601" transform="matrix(-0.809, -0.588, 0.588, -0.809, 7.882, 14.889)">
                <path id="t-53" data-name="t" d="M0,10.244V0H5.122Z" transform="translate(1.706 1.583) rotate(-18)" fill="#fc0"/>
                <path id="Контур_993" data-name="Контур 993" d="M0,0V10.244H5.122Z" transform="translate(4.871 11.326) rotate(-162)" fill="#fc0"/>
              </g>
            </g>
            <g id="Сгруппировать_604" data-name="Сгруппировать 604" transform="translate(15.825 18.95) rotate(180)">
              <g id="Сгруппировать_602" data-name="Сгруппировать 602" transform="translate(12.814 0) rotate(72)">
                <path id="t-54" data-name="t" d="M0,0V10.244H5.122Z" transform="translate(4.871 0) rotate(18)" fill="#fc0"/>
                <path id="Контур_994" data-name="Контур 994" d="M0,10.244V0H5.122Z" transform="translate(8.037 9.743) rotate(162)" fill="#fc0"/>
              </g>
              <g id="Сгруппировать_603" data-name="Сгруппировать 603" transform="matrix(-0.809, 0.588, -0.588, -0.809, 14.539, 13.223)">
                <path id="t-55" data-name="t" d="M0,0V10.244H5.122Z" transform="translate(4.871 0) rotate(18)" fill="#fc0"/>
                <path id="Контур_995" data-name="Контур 995" d="M0,10.244V0H5.122Z" transform="translate(8.037 9.743) rotate(162)" fill="#fc0"/>
              </g>
            </g>
          </g>
          <g id="Сгруппировать_611" data-name="Сгруппировать 611" transform="translate(27.899 21.395) rotate(-72)">
            <g id="c-12" data-name="c" transform="translate(6.377 10.07)">
              <path id="t-56" data-name="t" d="M0,10.244V0H5.122Z" transform="translate(1.706 1.583) rotate(-18)" fill="#fc0"/>
              <path id="Контур_996" data-name="Контур 996" d="M0,0V10.244H5.122Z" transform="translate(4.871 11.326) rotate(-162)" fill="#fc0"/>
            </g>
            <g id="a-12" data-name="a" transform="translate(6.671 0)">
              <g id="Сгруппировать_606" data-name="Сгруппировать 606" transform="translate(2.043 15.45) rotate(-72)">
                <path id="t-57" data-name="t" d="M0,10.244V0H5.122Z" transform="translate(1.706 1.583) rotate(-18)" fill="#fc0"/>
                <path id="Контур_997" data-name="Контур 997" d="M0,0V10.244H5.122Z" transform="translate(4.871 11.326) rotate(-162)" fill="#fc0"/>
              </g>
              <g id="Сгруппировать_607" data-name="Сгруппировать 607" transform="matrix(-0.809, -0.588, 0.588, -0.809, 7.882, 14.889)">
                <path id="t-58" data-name="t" d="M0,10.244V0H5.122Z" transform="translate(1.706 1.583) rotate(-18)" fill="#fc0"/>
                <path id="Контур_998" data-name="Контур 998" d="M0,0V10.244H5.122Z" transform="translate(4.871 11.326) rotate(-162)" fill="#fc0"/>
              </g>
            </g>
            <g id="Сгруппировать_610" data-name="Сгруппировать 610" transform="translate(15.825 18.95) rotate(180)">
              <g id="Сгруппировать_608" data-name="Сгруппировать 608" transform="translate(12.814 0) rotate(72)">
                <path id="t-59" data-name="t" d="M0,0V10.244H5.122Z" transform="translate(4.871 0) rotate(18)" fill="#fc0"/>
                <path id="Контур_999" data-name="Контур 999" d="M0,10.244V0H5.122Z" transform="translate(8.037 9.743) rotate(162)" fill="#fc0"/>
              </g>
              <g id="Сгруппировать_609" data-name="Сгруппировать 609" transform="matrix(-0.809, 0.588, -0.588, -0.809, 14.539, 13.223)">
                <path id="t-60" data-name="t" d="M0,0V10.244H5.122Z" transform="translate(4.871 0) rotate(18)" fill="#fc0"/>
                <path id="Контур_1000" data-name="Контур 1000" d="M0,10.244V0H5.122Z" transform="translate(8.037 9.743) rotate(162)" fill="#fc0"/>
              </g>
            </g>
          </g>
        </g>
      </g>
    </g>
    <text id="Co-funded_by" data-name="Co-funded by" transform="translate(423 444)" fill="#fff" font-size="64" font-family="Arial-BoldMT, Arial" font-weight="700" letter-spacing="-0.006em"><tspan x="0" y="0">Co-funded by</tspan></text>
    <text id="the_European_Union_" data-name="the European Union " transform="translate(423 520)" fill="#fff" font-size="64" font-family="Arial-BoldMT, Arial" font-weight="700" letter-spacing="-0.006em"><tspan x="0" y="0">the European Union </tspan></text>
  </g>
</svg>
